<?xml version="1.0" encoding="UTF-8" standalone="no"?>
<!-- Created with Inkscape (http://www.inkscape.org/) -->

<svg
   width="200.15709mm"
   height="200.35654mm"
   viewBox="0 0 200.15709 200.35651"
   version="1.1"
   id="svg5"
   xml:space="preserve"
   inkscape:export-filename="ControlMorado1.svg"
   inkscape:export-xdpi="25.379999"
   inkscape:export-ydpi="25.379999"
   xmlns:inkscape="http://www.inkscape.org/namespaces/inkscape"
   xmlns:sodipodi="http://sodipodi.sourceforge.net/DTD/sodipodi-0.dtd"
   xmlns="http://www.w3.org/2000/svg"
   xmlns:svg="http://www.w3.org/2000/svg"><sodipodi:namedview
     id="namedview7"
     pagecolor="#ffffff"
     bordercolor="#000000"
     borderopacity="0.25"
     inkscape:showpageshadow="2"
     inkscape:pageopacity="0.0"
     inkscape:pagecheckerboard="0"
     inkscape:deskcolor="#d1d1d1"
     inkscape:document-units="mm"
     showgrid="false" /><defs
     id="defs2"><rect
       x="482.13361"
       y="471.40463"
       width="41.574802"
       height="36.210312"
       id="rect4279" /><rect
       x="443.91162"
       y="272.24789"
       width="69.067818"
       height="44.927608"
       id="rect4273" /><rect
       x="221.43201"
       y="252.72647"
       width="75.391197"
       height="43.622578"
       id="rect4267" /></defs><g
     inkscape:label="Capa 1"
     inkscape:groupmode="layer"
     id="layer1"
     transform="translate(-0.5401398,-102.88998)"
     style="display:inline"><rect
       style="font-variation-settings:normal;display:inline;opacity:0.97;vector-effect:none;fill:#f6ffff;fill-opacity:1;fill-rule:evenodd;stroke:none;stroke-width:1.32292;stroke-linecap:butt;stroke-linejoin:miter;stroke-miterlimit:4;stroke-dasharray:none;stroke-dashoffset:0;stroke-opacity:1;-inkscape-stroke:none;stop-color:#000000;stop-opacity:1"
       id="rect5458"
       width="200.66193"
       height="200.93201"
       x="3.5800394e-08"
       y="103.16005" /><path
       style="opacity:1;fill:#ff32ff;fill-opacity:1;stroke:#000000;stroke-width:3;stroke-linecap:round;stroke-opacity:1"
       d="m 34.639895,254.2615 c -3.516096,-1.51561 -6.101121,-3.09235 -7.88688,-8.35088 -1.864136,-5.48933 -2.005796,-9.70166 -1.505453,-14.55271 0.61976,-6.00886 1.004853,-14.54246 2.759996,-21.57816 2.002109,-8.02569 3.945474,-16.29637 6.612082,-24.22756 1.333304,-3.96559 2.847419,-7.84631 4.640092,-11.56909 1.792674,-3.72279 3.863907,-7.28764 6.311447,-10.62149 0.881235,-1.20035 2.584182,-1.59585 3.512725,-2.76 1.406667,-1.76358 -0.01328,-3.53051 1.003633,-4.26545 5.617676,-4.06 12.640121,-6.9461 19.57089,-7.02545 2.115711,-0.0242 6.39792,-1.05791 6.731491,1.03146 0.135443,0.84837 -0.670021,1.70534 2.922196,1.90334 4.679515,0.25793 9.453095,0.23968 14.139605,0.20786 5.756882,-0.0391 15.265711,-0.23028 21.709921,-0.4131 5.37462,-0.15248 6.63013,0.1545 8.10257,-0.0761 3.359,-0.52608 3.39357,-0.32774 3.60143,-1.64981 0.46782,-2.97553 6.09524,-0.41522 9.03272,0.25091 5.62328,1.27518 13.06643,2.50984 14.21049,4.27545 1.4569,2.24841 1.10274,3.62797 3.98932,4.26805 1.47323,0.32668 2.62213,2.94356 3.62926,4.50376 8.89507,13.77982 12.65461,31.11017 16.30908,47.42177 1.8395,8.21054 2.45716,16.72938 2.76,25.09089 0.16658,4.59926 -1.71159,9.3984 -4.51637,13.04726 -2.6436,3.43918 -13.39807,8.2601 -19.37564,3.68699 -10.61963,-8.12449 -5.82341,-25.12925 -19.51523,-26.77061 -14.12249,-1.69299 -51.55427,-1.15276 -63.730842,1.50545 -11.054638,2.41329 -12.625551,21.78801 -23.397566,26.66723 -3.52856,1.59827 -8.063715,1.53334 -11.620967,-10e-6 z"
       id="path356"
       sodipodi:nodetypes="asssssssssssssssssssssssssaa" /><path
       style="opacity:1;fill:#000000;fill-opacity:1;stroke:#000000;stroke-width:3;stroke-linecap:round;stroke-opacity:1"
       d="m 68.795358,196.72227 0.08871,8.25 7.619566,-0.0819 0.08964,8.33679 10.114595,-0.10876 -0.0906,-8.42549 6.923323,-0.0744 -0.09065,-8.43026 -7.257016,-0.0879 -0.08582,-7.62619 -9.947873,-0.0876 0.08383,7.7073 -7.452597,0.17461 z"
       id="path3173"
       sodipodi:nodetypes="cccccccccccccc" /><circle
       style="font-variation-settings:normal;opacity:0.97;fill:#000000;fill-opacity:1;fill-rule:evenodd;stroke:#000000;stroke-width:1.323;stroke-linecap:butt;stroke-linejoin:round;stroke-miterlimit:4;stroke-dasharray:none;stroke-dashoffset:0;stroke-opacity:1;stop-color:#000000;stop-opacity:1"
       id="path3229"
       cx="61.826443"
       cy="175.21182"
       r="8.5936279" /><circle
       style="font-variation-settings:normal;opacity:0.97;vector-effect:none;fill:#000000;fill-opacity:1;fill-rule:evenodd;stroke:#000000;stroke-width:1.32292;stroke-linecap:butt;stroke-linejoin:round;stroke-miterlimit:4;stroke-dasharray:none;stroke-dashoffset:0;stroke-opacity:1;-inkscape-stroke:none;stop-color:#000000;stop-opacity:1"
       id="circle3231"
       cx="121.16638"
       cy="198.79726"
       r="8.5936279" /><circle
       style="font-variation-settings:normal;opacity:0.97;vector-effect:none;fill:#000000;fill-opacity:1;fill-rule:evenodd;stroke:#000000;stroke-width:0.838745;stroke-linecap:butt;stroke-linejoin:round;stroke-miterlimit:4;stroke-dasharray:none;stroke-dashoffset:0;stroke-opacity:1;-inkscape-stroke:none;stop-color:#000000;stop-opacity:1"
       id="circle3233"
       cx="129.94821"
       cy="175.96455"
       r="5.4484463" /><circle
       style="font-variation-settings:normal;opacity:0.97;vector-effect:none;fill:#000000;fill-opacity:1;fill-rule:evenodd;stroke:#000000;stroke-width:0.838745;stroke-linecap:butt;stroke-linejoin:round;stroke-miterlimit:4;stroke-dasharray:none;stroke-dashoffset:0;stroke-opacity:1;-inkscape-stroke:none;stop-color:#000000;stop-opacity:1"
       id="circle3235"
       cx="150.89911"
       cy="176.46637"
       r="5.4484463" /><circle
       style="font-variation-settings:normal;opacity:0.97;vector-effect:none;fill:#000000;fill-opacity:1;fill-rule:evenodd;stroke:#000000;stroke-width:0.838745;stroke-linecap:butt;stroke-linejoin:round;stroke-miterlimit:4;stroke-dasharray:none;stroke-dashoffset:0;stroke-opacity:1;-inkscape-stroke:none;stop-color:#000000;stop-opacity:1"
       id="circle3237"
       cx="140.7373"
       cy="186.50273"
       r="5.4484463" /><circle
       style="font-variation-settings:normal;opacity:0.97;vector-effect:none;fill:#000000;fill-opacity:1;fill-rule:evenodd;stroke:#000000;stroke-width:0.838745;stroke-linecap:butt;stroke-linejoin:round;stroke-miterlimit:4;stroke-dasharray:none;stroke-dashoffset:0;stroke-opacity:1;-inkscape-stroke:none;stop-color:#000000;stop-opacity:1"
       id="circle3239"
       cx="140.61185"
       cy="165.55185"
       r="5.4484463" /><circle
       style="font-variation-settings:normal;opacity:0.97;vector-effect:none;fill:none;fill-opacity:0;fill-rule:evenodd;stroke:#000000;stroke-width:0.435265;stroke-linecap:butt;stroke-linejoin:round;stroke-miterlimit:4;stroke-dasharray:none;stroke-dashoffset:0;stroke-opacity:1;-inkscape-stroke:none;stop-color:#000000;stop-opacity:1"
       id="circle3241"
       cx="112.44732"
       cy="175.52548"
       r="2.8274615" /><circle
       style="font-variation-settings:normal;opacity:0.97;vector-effect:none;fill:none;fill-opacity:0;fill-rule:evenodd;stroke:#000000;stroke-width:0.435265;stroke-linecap:butt;stroke-linejoin:round;stroke-miterlimit:4;stroke-dasharray:none;stroke-dashoffset:0;stroke-opacity:1;-inkscape-stroke:none;stop-color:#000000;stop-opacity:1"
       id="circle3243"
       cx="89.865524"
       cy="175.7764"
       r="2.8274615" /><circle
       style="font-variation-settings:normal;opacity:0.97;vector-effect:none;fill:none;fill-opacity:0;fill-rule:evenodd;stroke:#000000;stroke-width:0.838745;stroke-linecap:butt;stroke-linejoin:round;stroke-miterlimit:4;stroke-dasharray:none;stroke-dashoffset:0;stroke-opacity:1;-inkscape-stroke:none;stop-color:#000000;stop-opacity:1"
       id="circle3245"
       cx="101.09369"
       cy="162.03912"
       r="5.4484463" /><path
       style="opacity:1;fill:#000000;fill-opacity:1;stroke:#000000;stroke-width:1.323;stroke-linecap:round;stroke-dasharray:none;stroke-opacity:1"
       d="m 46.709183,162.2273 c 0,0 18.172913,-6.86378 27.694066,-8.43682 6.821463,-1.12701 20.731346,-0.65866 20.731346,-0.65866 0,0 20.829235,-0.77355 31.144055,0.40773 8.81337,1.00934 26.00043,5.67681 26.00043,5.67681 l -0.62727,-2.00727 -8.10749,-4.24977 -13.96464,-3.15988 -2.67375,1.67011 -51.310864,-0.12546 -4.735905,-0.62727 -6.241358,-0.62727 -10.977261,5.73954 z"
       id="path3316"
       sodipodi:nodetypes="cacacccccccccc" /><text
       xml:space="preserve"
       transform="matrix(0.26458333,0,0,0.26458333,79.876897,115.63597)"
       id="text4265"
       style="font-style:normal;font-variant:normal;font-weight:normal;font-stretch:normal;font-size:26.6667px;font-family:Arial;-inkscape-font-specification:Arial;white-space:pre;shape-inside:url(#rect4267);opacity:1;fill:#33fd61;fill-opacity:1;stroke:#000000;stroke-width:0;stroke-linecap:round;stroke-miterlimit:3.8;stroke-dasharray:none;stroke-opacity:1"><tspan
         x="221.43164"
         y="276.74671"
         id="tspan5699">A</tspan></text><text
       xml:space="preserve"
       transform="matrix(0.26458333,0,0,0.26458333,31.271167,100.29486)"
       id="text4271"
       style="font-style:normal;font-variant:normal;font-weight:normal;font-stretch:normal;font-size:26.6667px;font-family:Arial;-inkscape-font-specification:Arial;white-space:pre;shape-inside:url(#rect4273);opacity:1;fill:#ff3823;fill-opacity:1;stroke:#000000;stroke-width:0;stroke-linecap:round;stroke-miterlimit:3.8;stroke-dasharray:none;stroke-opacity:1"><tspan
         x="443.91211"
         y="296.2682"
         id="tspan5701">B</tspan></text><text
       xml:space="preserve"
       transform="matrix(0.26458333,0,0,0.26458333,0.07245792,47.423888)"
       id="text4277"
       style="font-style:normal;font-variant:normal;font-weight:normal;font-stretch:normal;font-size:26.6667px;font-family:Arial;-inkscape-font-specification:Arial;white-space:pre;shape-inside:url(#rect4279);opacity:1;fill:#008ddc;fill-opacity:1;stroke:#000000;stroke-width:0;stroke-linecap:round;stroke-miterlimit:3.8;stroke-dasharray:none;stroke-opacity:0"><tspan
         x="482.13281"
         y="495.42445"
         id="tspan5703">X</tspan></text><text
       xml:space="preserve"
       style="font-style:normal;font-variant:normal;font-weight:normal;font-stretch:normal;font-size:7.05556px;font-family:Arial;-inkscape-font-specification:Arial;display:inline;opacity:1;fill:#fffe1d;fill-opacity:1;stroke:#000000;stroke-width:0;stroke-linecap:round;stroke-miterlimit:3.8;stroke-dasharray:none;stroke-opacity:1"
       x="138.39827"
       y="167.93938"
       id="text4285"><tspan
         sodipodi:role="line"
         id="tspan4283"
         style="fill:#fffe1d;fill-opacity:1;stroke-width:0"
         x="138.39827"
         y="167.93938">Y</tspan></text></g></svg>
