<?xml version="1.0" encoding="UTF-8" standalone="no"?>
<!-- Created with Inkscape (http://www.inkscape.org/) -->

<svg
   width="200.15707mm"
   height="200.35654mm"
   viewBox="0 0 200.15707 200.35651"
   version="1.1"
   id="svg5"
   xml:space="preserve"
   inkscape:export-filename="ControlRojoAzul.svg"
   inkscape:export-xdpi="25.379999"
   inkscape:export-ydpi="25.379999"
   sodipodi:docname="ControlesRojoAzul2.svg"
   xmlns:inkscape="http://www.inkscape.org/namespaces/inkscape"
   xmlns:sodipodi="http://sodipodi.sourceforge.net/DTD/sodipodi-0.dtd"
   xmlns:xlink="http://www.w3.org/1999/xlink"
   xmlns="http://www.w3.org/2000/svg"
   xmlns:svg="http://www.w3.org/2000/svg"><sodipodi:namedview
     id="namedview7"
     pagecolor="#ffffff"
     bordercolor="#000000"
     borderopacity="0.25"
     inkscape:showpageshadow="2"
     inkscape:pageopacity="0.0"
     inkscape:pagecheckerboard="0"
     inkscape:deskcolor="#d1d1d1"
     inkscape:document-units="mm"
     showgrid="false" /><defs
     id="defs2"><linearGradient
       inkscape:collect="always"
       id="linearGradient5839"><stop
         style="stop-color:#ff0036;stop-opacity:1;"
         offset="0"
         id="stop5835" /><stop
         style="stop-color:#29c8fe;stop-opacity:1;"
         offset="1"
         id="stop5837" /></linearGradient><linearGradient
       inkscape:collect="always"
       xlink:href="#linearGradient5839"
       id="linearGradient5841"
       x1="23.50498"
       y1="202.17381"
       x2="178.30701"
       y2="202.17381"
       gradientUnits="userSpaceOnUse" /></defs><g
     inkscape:label="Capa 1"
     inkscape:groupmode="layer"
     id="layer1"
     transform="translate(-0.5401398,-102.88998)"
     style="display:none"><rect
       style="font-variation-settings:normal;display:inline;opacity:0.97;vector-effect:none;fill:#f6ffff;fill-opacity:1;fill-rule:evenodd;stroke:none;stroke-width:1.32292;stroke-linecap:butt;stroke-linejoin:miter;stroke-miterlimit:4;stroke-dasharray:none;stroke-dashoffset:0;stroke-opacity:1;-inkscape-stroke:none;stop-color:#000000;stop-opacity:1"
       id="rect5458"
       width="200.66193"
       height="200.93201"
       x="0.27006993"
       y="103.16005" /><path
       style="display:none;opacity:1;fill:url(#linearGradient5841);fill-opacity:1;stroke:#000000;stroke-width:3;stroke-linecap:round;stroke-opacity:1"
       d="m 34.639895,254.2615 c -3.516096,-1.51561 -6.101121,-3.09235 -7.88688,-8.35088 -1.864136,-5.48933 -2.005796,-9.70166 -1.505453,-14.55271 0.61976,-6.00886 1.004853,-14.54246 2.759996,-21.57816 2.002109,-8.02569 3.945474,-16.29637 6.612082,-24.22756 1.333304,-3.96559 2.847419,-7.84631 4.640092,-11.56909 1.792674,-3.72279 3.863907,-7.28764 6.311447,-10.62149 0.881235,-1.20035 2.584182,-1.59585 3.512725,-2.76 1.406667,-1.76358 -0.01328,-3.53051 1.003633,-4.26545 5.617676,-4.06 12.640121,-6.9461 19.57089,-7.02545 2.115711,-0.0242 6.39792,-1.05791 6.731491,1.03146 0.135443,0.84837 -0.670021,1.70534 2.922196,1.90334 4.679515,0.25793 9.453095,0.23968 14.139605,0.20786 5.756882,-0.0391 15.265711,-0.23028 21.709921,-0.4131 5.37462,-0.15248 6.63013,0.1545 8.10257,-0.0761 3.359,-0.52608 3.39357,-0.32774 3.60143,-1.64981 0.46782,-2.97553 6.09524,-0.41522 9.03272,0.25091 5.62328,1.27518 13.06643,2.50984 14.21049,4.27545 1.4569,2.24841 1.10274,3.62797 3.98932,4.26805 1.47323,0.32668 2.62213,2.94356 3.62926,4.50376 8.89507,13.77982 12.65461,31.11017 16.30908,47.42177 1.8395,8.21054 2.45716,16.72938 2.76,25.09089 0.16658,4.59926 -1.71159,9.3984 -4.51637,13.04726 -2.6436,3.43918 -13.39807,8.2601 -19.37564,3.68699 -10.61963,-8.12449 -5.82341,-25.12925 -19.51523,-26.77061 -14.12249,-1.69299 -51.55427,-1.15276 -63.730842,1.50545 -11.054638,2.41329 -12.625551,21.78801 -23.397566,26.66723 -3.52856,1.59827 -8.063715,1.53334 -11.620967,-10e-6 z"
       id="path356"
       sodipodi:nodetypes="asssssssssssssssssssssssssaa" /><path
       style="display:none;opacity:1;fill:#000000;fill-opacity:1;stroke:#000000;stroke-width:3;stroke-linecap:round;stroke-opacity:1"
       d="m 68.795358,196.72227 0.08871,8.25 7.619566,-0.0819 0.08964,8.33679 10.114595,-0.10876 -0.0906,-8.42549 6.923323,-0.0744 -0.09065,-8.43026 -7.257016,-0.0879 -0.08582,-7.62619 -9.947873,-0.0876 0.08383,7.7073 -7.452597,0.17461 z"
       id="path3173"
       sodipodi:nodetypes="cccccccccccccc" /><circle
       style="font-variation-settings:normal;display:none;opacity:0.97;fill:#000000;fill-opacity:1;fill-rule:evenodd;stroke:#000000;stroke-width:1.323;stroke-linecap:butt;stroke-linejoin:round;stroke-miterlimit:4;stroke-dasharray:none;stroke-dashoffset:0;stroke-opacity:1;stop-color:#000000;stop-opacity:1"
       id="path3229"
       cx="61.826443"
       cy="175.21182"
       r="8.5936279" /><circle
       style="font-variation-settings:normal;display:none;opacity:0.97;vector-effect:none;fill:#000000;fill-opacity:1;fill-rule:evenodd;stroke:#000000;stroke-width:1.32292;stroke-linecap:butt;stroke-linejoin:round;stroke-miterlimit:4;stroke-dasharray:none;stroke-dashoffset:0;stroke-opacity:1;-inkscape-stroke:none;stop-color:#000000;stop-opacity:1"
       id="circle3231"
       cx="121.16638"
       cy="198.79726"
       r="8.5936279" /><circle
       style="font-variation-settings:normal;display:none;opacity:0.97;vector-effect:none;fill:#000000;fill-opacity:1;fill-rule:evenodd;stroke:#000000;stroke-width:0.838745;stroke-linecap:butt;stroke-linejoin:round;stroke-miterlimit:4;stroke-dasharray:none;stroke-dashoffset:0;stroke-opacity:1;-inkscape-stroke:none;stop-color:#000000;stop-opacity:1"
       id="circle3233"
       cx="129.94821"
       cy="175.96455"
       r="5.4484463" /><circle
       style="font-variation-settings:normal;display:none;opacity:0.97;vector-effect:none;fill:#000000;fill-opacity:1;fill-rule:evenodd;stroke:#000000;stroke-width:0.838745;stroke-linecap:butt;stroke-linejoin:round;stroke-miterlimit:4;stroke-dasharray:none;stroke-dashoffset:0;stroke-opacity:1;-inkscape-stroke:none;stop-color:#000000;stop-opacity:1"
       id="circle3235"
       cx="150.89911"
       cy="176.46637"
       r="5.4484463" /><circle
       style="font-variation-settings:normal;display:none;opacity:0.97;vector-effect:none;fill:#000000;fill-opacity:1;fill-rule:evenodd;stroke:#000000;stroke-width:0.838745;stroke-linecap:butt;stroke-linejoin:round;stroke-miterlimit:4;stroke-dasharray:none;stroke-dashoffset:0;stroke-opacity:1;-inkscape-stroke:none;stop-color:#000000;stop-opacity:1"
       id="circle3237"
       cx="140.7373"
       cy="186.50273"
       r="5.4484463" /><circle
       style="font-variation-settings:normal;display:none;opacity:0.97;vector-effect:none;fill:#000000;fill-opacity:1;fill-rule:evenodd;stroke:#000000;stroke-width:0.838745;stroke-linecap:butt;stroke-linejoin:round;stroke-miterlimit:4;stroke-dasharray:none;stroke-dashoffset:0;stroke-opacity:1;-inkscape-stroke:none;stop-color:#000000;stop-opacity:1"
       id="circle3239"
       cx="140.61185"
       cy="165.55185"
       r="5.4484463" /><circle
       style="font-variation-settings:normal;display:none;opacity:0.97;vector-effect:none;fill:#000000;fill-opacity:1;fill-rule:evenodd;stroke:#000000;stroke-width:0.435265;stroke-linecap:butt;stroke-linejoin:round;stroke-miterlimit:4;stroke-dasharray:none;stroke-dashoffset:0;stroke-opacity:1;-inkscape-stroke:none;stop-color:#000000;stop-opacity:1"
       id="circle3241"
       cx="112.44732"
       cy="175.52548"
       r="2.8274615" /><circle
       style="font-variation-settings:normal;display:none;opacity:0.97;vector-effect:none;fill:#000000;fill-opacity:1;fill-rule:evenodd;stroke:#000000;stroke-width:0.435265;stroke-linecap:butt;stroke-linejoin:round;stroke-miterlimit:4;stroke-dasharray:none;stroke-dashoffset:0;stroke-opacity:1;-inkscape-stroke:none;stop-color:#000000;stop-opacity:1"
       id="circle3243"
       cx="89.865524"
       cy="175.7764"
       r="2.8274615" /><circle
       style="font-variation-settings:normal;display:none;opacity:0.97;vector-effect:none;fill:none;fill-opacity:0;fill-rule:evenodd;stroke:#000000;stroke-width:0.838745;stroke-linecap:butt;stroke-linejoin:round;stroke-miterlimit:4;stroke-dasharray:none;stroke-dashoffset:0;stroke-opacity:1;-inkscape-stroke:none;stop-color:#000000;stop-opacity:1"
       id="circle3245"
       cx="101.09369"
       cy="162.03912"
       r="5.4484463" /><path
       style="display:none;opacity:1;fill:#000000;fill-opacity:1;stroke:#000000;stroke-width:1.323;stroke-linecap:round;stroke-dasharray:none;stroke-opacity:1"
       d="m 46.709183,162.2273 c 0,0 18.172913,-6.86378 27.694066,-8.43682 6.821463,-1.12701 20.731346,-0.65866 20.731346,-0.65866 0,0 20.829235,-0.77355 31.144055,0.40773 8.81337,1.00934 26.00043,5.67681 26.00043,5.67681 l -0.62727,-2.00727 -8.10749,-4.24977 -13.96464,-3.15988 -2.67375,1.67011 -51.310864,-0.12546 -4.735905,-0.62727 -6.241358,-0.62727 -10.977261,5.73954 z"
       id="path3316"
       sodipodi:nodetypes="cacacccccccccc" /></g><g
     inkscape:groupmode="layer"
     id="layer2"
     inkscape:label="Capa 2"
     style="display:inline"
     transform="matrix(0.85702779,0,0,0.85702779,1.7141775,4.6949364)"><path
       style="display:inline;fill:#f8f44e;fill-opacity:1;stroke:none;stroke-width:0;stroke-linecap:round;stroke-miterlimit:3.8;stroke-dasharray:none;stroke-opacity:0"
       d="M 193.47325,144.4915 C 190.01008,141.59634 67.989681,36.42615 65.190043,34.03291 63.328581,32.44166 62.840763,29.45271 63.029484,27.01109 63.17221,25.16455 64.276005,23.43887 65.460114,22.0148 71.828891,14.35536 83.211445,5.40268 89.496335,4.2577 94.540005,3.33885 99.704816,2.67629 104.8228,2.97487 c 4.97469,0.29022 9.97794,1.24116 14.65129,2.97077 2.29608,0.84978 4.47775,2.08032 6.41417,3.57843 4.09612,3.16896 81.87525,66.67946 87.84024,72.10866 4.32426,3.93584 6.01096,7.08054 8.03457,11.2079 1.66452,3.39495 2.46785,6.77567 3.24084,10.87031 0.86004,4.55569 0.44567,7.87836 -1.14779,11.14039 -1.71233,3.50534 -16.15224,26.03524 -21.94318,30.31534 -2.26959,1.67745 -6.27443,1.13496 -8.43969,-0.67517 z"
       id="path6903"
       sodipodi:nodetypes="ssaasaassassss" /><path
       style="display:inline;fill:#000000;fill-opacity:1;stroke:none;stroke-width:0;stroke-linecap:round;stroke-miterlimit:3.8;stroke-dasharray:none;stroke-opacity:0"
       d="m 70.726477,30.522 -2.970768,4.59119 -1.080281,7.02182 114.779712,95.87481 4.32112,-5.94154 z"
       id="path6905" /><circle
       style="font-variation-settings:normal;display:inline;opacity:0.97;fill:#dbca00;fill-opacity:1;fill-rule:evenodd;stroke:#000000;stroke-width:0.4;stroke-linecap:butt;stroke-linejoin:round;stroke-miterlimit:4;stroke-dasharray:none;stroke-dashoffset:0;stroke-opacity:1;stop-color:#000000"
       id="path6909"
       cx="106.71329"
       cy="41.527344"
       r="5.5099163" /><circle
       style="font-variation-settings:normal;display:inline;opacity:0.97;fill:#0000ff;fill-opacity:1;fill-rule:evenodd;stroke:#000000;stroke-width:0.4;stroke-linecap:butt;stroke-linejoin:round;stroke-miterlimit:4;stroke-dasharray:none;stroke-dashoffset:0;stroke-opacity:1;stop-color:#000000"
       id="circle6911"
       cx="106.17316"
       cy="24.647982"
       r="5.5099163" /><circle
       style="font-variation-settings:normal;display:inline;opacity:0.97;fill:#ff261f;fill-opacity:1;fill-rule:evenodd;stroke:#000000;stroke-width:0.4;stroke-linecap:butt;stroke-linejoin:round;stroke-miterlimit:4;stroke-dasharray:none;stroke-dashoffset:0;stroke-opacity:1;stop-color:#000000"
       id="circle6913"
       cx="125.61819"
       cy="41.122238"
       r="5.5099163" /><circle
       style="font-variation-settings:normal;display:inline;opacity:0.97;fill:#5cff48;fill-opacity:1;fill-rule:evenodd;stroke:#000000;stroke-width:0.4;stroke-linecap:butt;stroke-linejoin:round;stroke-miterlimit:4;stroke-dasharray:none;stroke-dashoffset:0;stroke-opacity:1;stop-color:#000000"
       id="circle6915"
       cx="125.07805"
       cy="24.242876"
       r="5.5099163" /><ellipse
       style="font-variation-settings:normal;display:inline;opacity:0.97;vector-effect:none;fill:#000000;fill-opacity:1;fill-rule:evenodd;stroke:#000000;stroke-width:1.41967;stroke-linecap:butt;stroke-linejoin:round;stroke-miterlimit:4;stroke-dasharray:none;stroke-dashoffset:0;stroke-opacity:1;-inkscape-stroke:none;stop-color:#000000"
       id="ellipse6919"
       cx="154.65068"
       cy="65.293503"
       rx="12.442356"
       ry="11.767181" /><ellipse
       style="font-variation-settings:normal;display:inline;opacity:0.97;vector-effect:none;fill:#000000;fill-opacity:1;fill-rule:evenodd;stroke:#000000;stroke-width:1.41967;stroke-linecap:butt;stroke-linejoin:round;stroke-miterlimit:4;stroke-dasharray:none;stroke-dashoffset:0;stroke-opacity:1;-inkscape-stroke:none;stop-color:#000000"
       id="path6917"
       cx="156.54117"
       cy="60.702316"
       rx="12.442356"
       ry="11.767181" /><circle
       style="font-variation-settings:normal;display:inline;opacity:0.97;fill:#000000;fill-opacity:1;fill-rule:evenodd;stroke:#000000;stroke-width:0.4;stroke-linecap:butt;stroke-linejoin:round;stroke-miterlimit:4;stroke-dasharray:none;stroke-dashoffset:0;stroke-opacity:1;stop-color:#000000"
       id="circle7064"
       cx="174.31606"
       cy="93.470703"
       r="5.5099163" /></g><g
     inkscape:groupmode="layer"
     id="g7156"
     inkscape:label="Capa 2"
     style="display:inline"
     transform="matrix(0,0.83789069,0.83789069,0,15.054284,-6.934859)"><path
       style="display:inline;fill:#fe25f2;fill-opacity:1;stroke:none;stroke-width:0;stroke-linecap:round;stroke-miterlimit:3.8;stroke-dasharray:none;stroke-opacity:0"
       d="M 193.47325,144.4915 C 190.01008,141.59634 67.989681,36.42615 65.190043,34.03291 63.328581,32.44166 62.840763,29.45271 63.029484,27.01109 63.17221,25.16455 64.276005,23.43887 65.460114,22.0148 71.828891,14.35536 83.211445,5.40268 89.496335,4.2577 94.540005,3.33885 99.704816,2.67629 104.8228,2.97487 c 4.97469,0.29022 9.97794,1.24116 14.65129,2.97077 2.29608,0.84978 4.47775,2.08032 6.41417,3.57843 4.09612,3.16896 81.87525,66.67946 87.84024,72.10866 4.32426,3.93584 6.01096,7.08054 8.03457,11.2079 1.66452,3.39495 2.46785,6.77567 3.24084,10.87031 0.86004,4.55569 0.44567,7.87836 -1.14779,11.14039 -1.71233,3.50534 -16.15224,26.03524 -21.94318,30.31534 -2.26959,1.67745 -6.27443,1.13496 -8.43969,-0.67517 z"
       id="path7138"
       sodipodi:nodetypes="ssaasaassassss" /><path
       style="display:inline;fill:#000000;fill-opacity:1;stroke:none;stroke-width:0;stroke-linecap:round;stroke-miterlimit:3.8;stroke-dasharray:none;stroke-opacity:0"
       d="m 70.726477,30.522 -2.970768,4.59119 -1.080281,7.02182 114.779712,95.87481 4.32112,-5.94154 z"
       id="path7140" /><circle
       style="font-variation-settings:normal;display:inline;opacity:0.97;fill:#dbca00;fill-opacity:1;fill-rule:evenodd;stroke:#000000;stroke-width:0.4;stroke-linecap:butt;stroke-linejoin:round;stroke-miterlimit:4;stroke-dasharray:none;stroke-dashoffset:0;stroke-opacity:1;stop-color:#000000"
       id="circle7142"
       cx="106.71329"
       cy="41.527344"
       r="5.5099163" /><circle
       style="font-variation-settings:normal;display:inline;opacity:0.97;fill:#0000ff;fill-opacity:1;fill-rule:evenodd;stroke:#000000;stroke-width:0.4;stroke-linecap:butt;stroke-linejoin:round;stroke-miterlimit:4;stroke-dasharray:none;stroke-dashoffset:0;stroke-opacity:1;stop-color:#000000"
       id="circle7144"
       cx="106.17316"
       cy="24.647982"
       r="5.5099163" /><circle
       style="font-variation-settings:normal;display:inline;opacity:0.97;fill:#ff261f;fill-opacity:1;fill-rule:evenodd;stroke:#000000;stroke-width:0.4;stroke-linecap:butt;stroke-linejoin:round;stroke-miterlimit:4;stroke-dasharray:none;stroke-dashoffset:0;stroke-opacity:1;stop-color:#000000"
       id="circle7146"
       cx="125.61819"
       cy="41.122238"
       r="5.5099163" /><circle
       style="font-variation-settings:normal;display:inline;opacity:0.97;fill:#5cff48;fill-opacity:1;fill-rule:evenodd;stroke:#000000;stroke-width:0.4;stroke-linecap:butt;stroke-linejoin:round;stroke-miterlimit:4;stroke-dasharray:none;stroke-dashoffset:0;stroke-opacity:1;stop-color:#000000"
       id="circle7148"
       cx="125.07805"
       cy="24.242876"
       r="5.5099163" /><ellipse
       style="font-variation-settings:normal;display:inline;opacity:0.97;vector-effect:none;fill:#000000;fill-opacity:1;fill-rule:evenodd;stroke:#000000;stroke-width:1.41967;stroke-linecap:butt;stroke-linejoin:round;stroke-miterlimit:4;stroke-dasharray:none;stroke-dashoffset:0;stroke-opacity:1;-inkscape-stroke:none;stop-color:#000000"
       id="ellipse7150"
       cx="154.65068"
       cy="65.293503"
       rx="12.442356"
       ry="11.767181" /><ellipse
       style="font-variation-settings:normal;display:inline;opacity:0.97;vector-effect:none;fill:#000000;fill-opacity:1;fill-rule:evenodd;stroke:#000000;stroke-width:1.41967;stroke-linecap:butt;stroke-linejoin:round;stroke-miterlimit:4;stroke-dasharray:none;stroke-dashoffset:0;stroke-opacity:1;-inkscape-stroke:none;stop-color:#000000"
       id="ellipse7152"
       cx="156.54117"
       cy="60.702316"
       rx="12.442356"
       ry="11.767181" /><circle
       style="font-variation-settings:normal;display:inline;opacity:0.97;fill:#000000;fill-opacity:1;fill-rule:evenodd;stroke:#000000;stroke-width:0.4;stroke-linecap:butt;stroke-linejoin:round;stroke-miterlimit:4;stroke-dasharray:none;stroke-dashoffset:0;stroke-opacity:1;stop-color:#000000"
       id="circle7154"
       cx="174.31606"
       cy="93.470703"
       r="5.5099163" /></g></svg>
